<svg
	xmlns="http://www.w3.org/2000/svg"
	version="1.1"
	xmlns:xlink="http://www.w3.org/1999/xlink"
	width="512"
	height="512"
	x="0"
	y="0"
	viewBox="0 0 480 480"
	style="enable-background: new 0 0 512 512"
	xml:space="preserve"
	class="">
	<g>
		<path
			d="M232 16h16v16h-16zM16 232h16v16H16z"
			style=""
			fill="#B2D8D8"
			data-original="#B2D8D8"></path>
		<circle
			cx="24"
			cy="24"
			r="8"
			style=""
			fill="#B2D8D8"
			data-original="#B2D8D8"></circle>
		<circle
			cx="456"
			cy="24"
			r="8"
			style=""
			fill="#B2D8D8"
			data-original="#B2D8D8"></circle>
		<path
			d="M448 232h16v16h-16zM208 400h64c4.408 0 8-3.584 8-8s-3.592-8-8-8h-64c-4.408 0-8 3.584-8 8s3.592 8 8 8z"
			style=""
			fill="#B2D8D8"
			data-original="#B2D8D8"></path>
		<circle
			cx="240"
			cy="168"
			r="8"
			style=""
			fill="#FFE868"
			data-original="#FFE868"
			class=""></circle>
		<path
			d="M280 424c0-4.416-3.592-8-8-8h-64c-4.408 0-8 3.584-8 8s3.592 8 8 8h64c4.408 0 8-3.584 8-8zM208 368h64c4.408 0 8-3.584 8-8s-3.592-8-8-8h-64c-4.408 0-8 3.584-8 8s3.592 8 8 8z"
			style=""
			fill="#B2D8D8"
			data-original="#B2D8D8"></path>
		<path
			d="m260.088 224 49.472-63.6L248 92.688v52.784c9.288 3.312 16 12.112 16 22.528 0 13.232-10.768 24-24 24s-24-10.768-24-24c0-10.416 6.704-19.216 16-22.528V92.688L170.448 160.4 219.92 224h40.168z"
			style=""
			fill="#FFE868"
			data-original="#FFE868"
			class=""></path>
		<path
			d="m222.56 240-6.4 32 6.4 32h34.88l6.4-32-6.4-32z"
			style=""
			fill="#4CA6A6"
			data-original="#4CA6A6"
			class=""></path>
		<path
			d="M208 336h64c4.408 0 8-3.584 8-8s-3.592-8-8-8h-64c-4.408 0-8 3.584-8 8s3.592 8 8 8zM312 280v32c0 4.424-3.584 8-8 8h-9.472c.896 2.512 1.472 5.184 1.472 8 0 6.168-2.408 11.744-6.24 16 3.84 4.256 6.24 9.832 6.24 16s-2.408 11.744-6.24 16c3.84 4.256 6.24 9.832 6.24 16s-2.408 11.744-6.24 16c3.84 4.256 6.24 9.832 6.24 16 0 13.232-10.768 24-24 24h-48v32h112V249.016c-13.784 3.552-24 16.104-24 30.984z"
			style=""
			fill="#B2D8D8"
			data-original="#B2D8D8"></path>
		<path
			d="M344 232c-26.472 0-48 21.528-48 48v24h-22.24l6.088-30.432a7.998 7.998 0 0 0 0-3.144l-7.28-36.4 53.752-69.112a8.01 8.01 0 0 0-.4-10.296l-80-88c-3.032-3.328-8.808-3.328-11.84 0l-80 88a8.01 8.01 0 0 0-.4 10.296l53.752 69.112-7.28 36.4a7.998 7.998 0 0 0 0 3.144l6.12 30.608C193.856 305.072 184 315.352 184 328c0 6.168 2.408 11.744 6.24 16-3.84 4.256-6.24 9.832-6.24 16s2.408 11.744 6.24 16c-3.84 4.256-6.24 9.832-6.24 16s2.408 11.744 6.24 16c-3.84 4.256-6.24 9.832-6.24 16 0 13.232 10.768 24 24 24v32h16v-32h48c13.232 0 24-10.768 24-24 0-6.168-2.408-11.744-6.24-16 3.84-4.256 6.24-9.832 6.24-16s-2.408-11.744-6.24-16c3.84-4.256 6.24-9.832 6.24-16s-2.408-11.744-6.24-16c3.84-4.256 6.24-9.832 6.24-16 0-2.816-.576-5.488-1.472-8H304c4.416 0 8-3.576 8-8v-32c0-14.88 10.216-27.432 24-30.984V480h16V240c0-4.424-3.584-8-8-8zm-104-72c4.408 0 8 3.584 8 8s-3.592 8-8 8c-4.408 0-8-3.584-8-8s3.592-8 8-8zm-69.552.4L232 92.688v52.784c-9.296 3.312-16 12.112-16 22.528 0 13.232 10.768 24 24 24s24-10.768 24-24c0-10.416-6.712-19.216-16-22.528V92.688l61.552 67.712-49.464 63.6H219.92l-49.472-63.6zM263.84 272l-6.4 32h-34.88l-6.4-32 6.4-32h34.88l6.4 32zM208 320h64c4.408 0 8 3.584 8 8s-3.592 8-8 8h-64c-4.408 0-8-3.584-8-8s3.592-8 8-8zm0 32h64c4.408 0 8 3.584 8 8s-3.592 8-8 8h-64c-4.408 0-8-3.584-8-8s3.592-8 8-8zm0 32h64c4.408 0 8 3.584 8 8s-3.592 8-8 8h-64c-4.408 0-8-3.584-8-8s3.592-8 8-8zm0 48c-4.408 0-8-3.584-8-8s3.592-8 8-8h64c4.408 0 8 3.584 8 8s-3.592 8-8 8h-64z"
			style=""
			fill="#0D0D0D"
			data-original="#0D0D0D"
			class=""></path>
		<path
			d="M472 216h-9.392c-8.952-83.448-64.608-153.76-140-184h110.864c3.32 9.288 12.112 16 22.528 16 13.232 0 24-10.768 24-24S469.232 0 456 0c-10.416 0-19.216 6.712-22.528 16H264V8c0-4.424-3.584-8-8-8h-32c-4.416 0-8 3.576-8 8v8H46.528C43.216 6.712 34.416 0 24 0 10.768 0 0 10.768 0 24s10.768 24 24 24c10.416 0 19.216-6.712 22.528-16H157.4C82 62.24 26.352 132.552 17.392 216H8c-4.416 0-8 3.576-8 8v32c0 4.424 3.584 8 8 8h32c4.416 0 8-3.576 8-8v-32c0-4.424-3.584-8-8-8h-6.328C44.696 120.92 120.928 44.688 216 33.664V40c0 4.424 3.584 8 8 8h32c4.416 0 8-3.576 8-8v-6.336C359.08 44.688 435.304 120.92 446.336 216H440c-4.416 0-8 3.576-8 8v32c0 4.424 3.584 8 8 8h32c4.416 0 8-3.576 8-8v-32c0-4.424-3.584-8-8-8zM456 16c4.408 0 8 3.584 8 8s-3.592 8-8 8-8-3.584-8-8 3.592-8 8-8zM24 32c-4.408 0-8-3.584-8-8s3.592-8 8-8 8 3.584 8 8-3.592 8-8 8zm8 216H16v-16h16v16zM248 32h-16V16h16v16zm216 216h-16v-16h16v16zM96 368h16v16H96zM64 400h16v16H64zM64 368h16v16H64zM64 336h16v16H64zM368 368h16v16h-16zM400 336h16v16h-16zM400 368h16v16h-16zM400 400h16v16h-16z"
			style=""
			fill="#0D0D0D"
			data-original="#0D0D0D"
			class=""></path>
	</g>
</svg>