<svg
    xmlns="http://www.w3.org/2000/svg"
    version="1.1"
    xmlns:xlink="http://www.w3.org/1999/xlink"
    width="512"
    height="512"
    x="0"
    y="0"
    viewBox="0 0 64 64"
    style="enable-background:new 0 0 512 512"
    xml:space="preserve"
    class="">
	<g>
		<path
            fill="#0d0d0d"
            d="M61.63 35.57v-5.71C61.63 13.52 48.34.23 32 .23S2.38 13.52 2.38 29.86v5.71C.91 36.78 0 38.46 0 40.33v4.08c0 3.4 3.01 6.21 6.87 6.58.31 1.37 1.53 2.4 3 2.4h2.05c1.7 0 3.08-1.39 3.08-3.08V34.44c0-1.7-1.39-3.08-3.08-3.08H9.86c-.48 0-.93.12-1.33.32v-1.81C8.53 16.92 19.05 6.39 32 6.39s23.48 10.53 23.48 23.48v1.81c-.41-.19-.85-.32-1.33-.32h-2.06a3.08 3.08 0 0 0-3.07 3.08v15.87c0 1.7 1.38 3.08 3.07 3.08h2.06c.18 0 .36-.03.53-.06-1.33 3.46-4.66 5.92-8.59 5.92h-8.76v-.82c0-.48-.36-.89-.83-.96l-5.54-.78c-.28-.04-.56.05-.77.22-.21.18-.34.46-.34.74v5.14c0 .28.13.54.34.73.17.16.4.24.63.24.05 0 .1 0 .14-.01l5.54-.78c.48-.07.83-.48.83-.96v-.81h8.76c5.84 0 10.63-4.5 11.09-10.21C61.01 50.6 64 47.8 64 44.42v-4.08c0-1.88-.91-3.56-2.37-4.77zm-52.9-1.13c0-.63.5-1.14 1.13-1.14h2.05c.63 0 1.14.51 1.14 1.14v15.87c0 .63-.51 1.14-1.14 1.14H9.86c-.63 0-1.13-.51-1.13-1.14zm26.66 26.74-3.6.5v-2.91l3.6.5zm19.89-11.06c0 .09-.01.17-.01.26-.04.6-.52 1.08-1.12 1.08h-2.06c-.62 0-1.13-.51-1.13-1.14V34.44c0-.63.51-1.14 1.13-1.14h2.06c.63 0 1.13.51 1.13 1.14zM6.79 49.03c-2.74-.37-4.85-2.3-4.85-4.62v-4.08c0-2.32 2.1-4.25 4.85-4.62zM32 4.45c-14.01 0-25.41 11.39-25.41 25.42v3.93c-.8.11-1.57.31-2.28.61v-4.54C4.32 14.59 16.74 2.17 32 2.17c15.27 0 27.69 12.42 27.69 27.69v4.54c-.71-.3-1.47-.5-2.28-.61v-3.93C57.42 15.84 46.01 4.45 32 4.45zm30.06 39.97c0 2.32-2.09 4.25-4.84 4.62V35.72c2.74.37 4.84 2.3 4.84 4.62z"
            opacity="1"
            data-original="#0d0d0d"
            class="" />
		<path
            fill="#FFE667"
            d="M13.05 34.44v15.87c0 .63-.51 1.14-1.14 1.14H9.86c-.63 0-1.13-.51-1.13-1.14V34.44c0-.63.5-1.14 1.13-1.14h2.05c.63-.01 1.14.51 1.14 1.14zM55.28 34.44v15.68c0 .09-.01.17-.01.26-.04.6-.52 1.08-1.12 1.08h-2.06c-.62 0-1.13-.51-1.13-1.14V34.44c0-.63.51-1.14 1.13-1.14h2.06c.63-.01 1.13.51 1.13 1.14z"
            opacity="1"
            data-original="#FFE667" />
		<path
            fill="#008080"
            d="M35.39 59.28v1.9l-3.59.51v-2.91zM6.79 35.72v13.31c-2.74-.37-4.85-2.3-4.85-4.62v-4.08c0-2.31 2.1-4.24 4.85-4.61z"
            opacity="1"
            data-original="#008080" />
		<path
            fill="#FDF0B0"
            d="M11.17 51.46H9.86c-.63 0-1.13-.51-1.13-1.14V34.44c0-.63.5-1.14 1.13-1.14h1.31c-.59 0-1.07.51-1.07 1.14v15.87c0 .63.48 1.15 1.07 1.15zM55.28 34.44v15.68c0 .09-.01.17-.01.26-.04.6-.52 1.08-1.12 1.08h-1.31c.56 0 1.02-.48 1.06-1.08 0-.09.01-.17.01-.26V34.44c0-.63-.48-1.14-1.07-1.14h1.31c.63-.01 1.13.51 1.13 1.14z"
            opacity="1"
            data-original="#FDF0B0" />
		<path
            fill="#008080"
            d="M62.06 40.33v4.08c0 2.32-2.09 4.25-4.84 4.62V35.72c2.75.37 4.84 2.3 4.84 4.61z"
            opacity="1"
            data-original="#008080" />
		<path
            fill="#339A9A"
            d="M3.73 40.33v4.08c0 1.84 1.25 3.43 3.05 4.19v.43c-2.74-.37-4.85-2.3-4.85-4.62v-4.08c0-2.32 2.1-4.25 4.85-4.62v.43c-1.8.76-3.05 2.35-3.05 4.19zM62.06 40.33v4.08c0 2.32-2.09 4.25-4.84 4.62v-.43c1.8-.76 3.04-2.35 3.04-4.19v-4.08c0-1.84-1.24-3.43-3.04-4.19v-.43c2.75.38 4.84 2.31 4.84 4.62zM59.69 29.86v4.54c-.71-.3-1.47-.5-2.28-.61v-3.93c0-14.02-11.4-25.42-25.42-25.42s-25.4 11.4-25.4 25.42v3.93c-.8.11-1.57.31-2.28.61v-4.54C4.32 14.59 16.74 2.17 32 2.17c15.27 0 27.69 12.42 27.69 27.69z"
            opacity="1"
            data-original="#339A9A"
            class="" />
		<g fill="#0d0d0d">
			<path
                d="M32.77 34.99c0 .83-.54 1.47-1.43 1.47-.83 0-1.41-.64-1.41-1.47 0-.88.59-1.5 1.43-1.5.83 0 1.41.62 1.41 1.5zM33.65 27.54c-1.05 1.24-1.43 2.29-1.36 3.5l.02.61h-1.85l-.05-.61c-.15-1.29.29-2.7 1.47-4.12 1.08-1.26 1.67-2.18 1.67-3.26 0-1.21-.77-2.02-2.26-2.05-.85 0-1.81.29-2.4.74l-.57-1.49c.79-.57 2.14-.95 3.4-.95 2.73 0 3.98 1.69 3.98 3.49-.01 1.62-.92 2.79-2.05 4.14z"
                fill="#0d0d0d"
                opacity="1"
                data-original="#0d0d0d"
                class="" />
			<path
                d="M46.28 25.25h-1.53c-.33-1.41-.89-2.76-1.66-3.99l1.09-1.1a.976.976 0 0 0 0-1.37L41.4 16c-.39-.38-1-.38-1.38 0l-1.09 1.09c-1.22-.77-2.58-1.33-3.99-1.65v-1.53a.97.97 0 0 0-.97-.97h-3.95a.97.97 0 0 0-.97.97v1.53c-1.41.32-2.76.88-3.99 1.66l-1.1-1.1a.952.952 0 0 0-.68-.28c-.26 0-.5.1-.69.28l-2.78 2.79c-.38.38-.38.99 0 1.37l1.09 1.09a13.24 13.24 0 0 0-1.66 4h-1.53c-.53 0-.97.44-.97.97v3.94c0 .53.44.97.97.97h1.53c.33 1.41.89 2.76 1.66 4l-1.09 1.09c-.38.38-.38.99 0 1.37l2.78 2.79a.976.976 0 0 0 1.37 0l1.1-1.1c1.22.78 2.58 1.34 3.99 1.66v1.54c0 .53.44.97.97.97h3.95c.53 0 .97-.44.97-.97v-1.54c1.41-.32 2.76-.88 3.99-1.65l1.09 1.09c.38.38.99.38 1.38 0l2.78-2.79c.18-.17.28-.43.28-.68 0-.26-.1-.5-.28-.69l-1.09-1.09a13.24 13.24 0 0 0 1.66-4h1.53c.53 0 .97-.44.97-.97v-3.94c0-.54-.43-.97-.97-.97zm-.97 3.93h-1.37c-.48 0-.88.35-.95.81-.27 1.68-.95 3.29-1.94 4.66-.28.39-.24.92.1 1.26l.97.97-1.42 1.42-.97-.97a.97.97 0 0 0-1.25-.1c-1.38.99-3 1.66-4.66 1.94-.48.07-.81.48-.81.95v1.37H31v-1.37a.95.95 0 0 0-.81-.95c-1.68-.28-3.29-.95-4.66-1.95a.971.971 0 0 0-1.25.11l-.97.97-1.42-1.42.96-.97a.96.96 0 0 0 .11-1.25c-1-1.4-1.67-3.01-1.94-4.67a.965.965 0 0 0-.95-.81H18.7v-2h1.37c.47 0 .87-.35.95-.81.28-1.7.93-3.27 1.94-4.67a.96.96 0 0 0-.11-1.25l-.96-.97 1.42-1.42.97.97c.33.34.86.38 1.25.11 1.38-1 2.99-1.67 4.66-1.94.48-.08.81-.48.81-.96v-1.36h2.01v1.36c0 .48.34.88.81.96 1.67.27 3.29.94 4.66 1.93.39.28.92.24 1.25-.1l.97-.97 1.42 1.42-.97.97c-.34.34-.38.87-.1 1.26.99 1.38 1.67 2.99 1.94 4.66.07.47.48.81.95.81h1.37z"
                fill="#0d0d0d"
                opacity="1"
                data-original="#0d0d0d"
                class="" />
		</g>
		<path
            fill="#FF6F61"
            d="M43.95 27.19c-.48 0-.88-.35-.95-.81-.27-1.68-.95-3.29-1.94-4.66a.973.973 0 0 1 .1-1.26l.97-.97-1.42-1.42-.97.97c-.33.34-.86.38-1.25.1-1.38-.99-3-1.66-4.66-1.93a.959.959 0 0 1-.81-.96v-1.36H31v1.36c0 .48-.34.88-.81.96-1.68.27-3.29.94-4.66 1.94-.39.27-.92.23-1.25-.11l-.97-.97-1.42 1.42.96.97c.34.34.39.86.11 1.25a11.053 11.053 0 0 0-1.94 4.67c-.08.47-.48.81-.95.81H18.7v2h1.37c.48 0 .87.35.95.81.27 1.67.94 3.28 1.94 4.67.28.39.23.91-.11 1.25l-.96.97 1.42 1.42.97-.97c.33-.34.86-.38 1.25-.11 1.38 1 2.99 1.67 4.66 1.95.48.07.81.48.81.95v1.37h2.01v-1.37c0-.48.34-.88.81-.95 1.67-.28 3.29-.95 4.66-1.94a.97.97 0 0 1 1.25.1l.97.97 1.42-1.42-.97-.97a.973.973 0 0 1-.1-1.26c.99-1.38 1.67-2.99 1.94-4.66.07-.47.48-.81.95-.81h1.37v-2zm-12.61 9.28c-.83 0-1.41-.64-1.41-1.47 0-.88.59-1.5 1.43-1.5.83 0 1.41.62 1.41 1.5 0 .83-.55 1.47-1.43 1.47zm2.31-8.93c-1.05 1.24-1.43 2.29-1.36 3.5l.02.61h-1.85l-.05-.61c-.15-1.29.29-2.7 1.47-4.12 1.08-1.26 1.67-2.18 1.67-3.26 0-1.21-.77-2.02-2.26-2.05-.85 0-1.81.29-2.4.74l-.57-1.49c.79-.57 2.14-.95 3.4-.95 2.73 0 3.98 1.69 3.98 3.49-.01 1.62-.92 2.79-2.05 4.14z"
            opacity="1"
            data-original="#FF6F61" />
		<path
            fill="#FF6F61"
            d="M43.95 27.19c-.48 0-.88-.35-.95-.81-.27-1.68-.95-3.29-1.94-4.66a.973.973 0 0 1 .1-1.26l.97-.97-1.42-1.42-.97.97c-.33.34-.86.38-1.25.1-1.38-.99-3-1.66-4.66-1.93a.959.959 0 0 1-.81-.96v-1.36H31v1.36c0 .48-.34.88-.81.96-1.68.27-3.29.94-4.66 1.94-.39.27-.92.23-1.25-.11l-.97-.97-1.42 1.42.96.97c.34.34.39.86.11 1.25a11.053 11.053 0 0 0-1.94 4.67c-.08.47-.48.81-.95.81H18.7v2h1.37c.48 0 .87.35.95.81.27 1.67.94 3.28 1.94 4.67.28.39.23.91-.11 1.25l-.96.97 1.42 1.42.97-.97c.33-.34.86-.38 1.25-.11 1.38 1 2.99 1.67 4.66 1.95.48.07.81.48.81.95v1.37h2.01v-1.37c0-.48.34-.88.81-.95 1.67-.28 3.29-.95 4.66-1.94a.97.97 0 0 1 1.25.1l.97.97 1.42-1.42-.97-.97a.973.973 0 0 1-.1-1.26c.99-1.38 1.67-2.99 1.94-4.66.07-.47.48-.81.95-.81h1.37v-2zm.05 1.9h-1.23c-.43 0-.8.31-.85.74-.24 1.5-.85 2.96-1.75 4.2-.25.35-.22.83.09 1.13l.87.87-1.28 1.28-.87-.87c-.3-.3-.78-.34-1.12-.09-1.24.89-2.71 1.49-4.21 1.75-.43.06-.73.43-.73.85v1.23H31.1v-1.23c0-.43-.3-.8-.73-.85a9.867 9.867 0 0 1-4.21-1.76.867.867 0 0 0-1.12.1l-.87.87-1.28-1.28.86-.87c.31-.3.35-.78.1-1.12-.89-1.26-1.5-2.71-1.75-4.21a.868.868 0 0 0-.85-.74h-1.23v-1.8h1.23c.42 0 .79-.31.85-.73.25-1.53.84-2.95 1.75-4.22.25-.35.21-.81-.1-1.12l-.86-.87 1.28-1.28.87.87c.3.31.78.35 1.12.1 1.24-.89 2.7-1.5 4.21-1.75a.87.87 0 0 0 .73-.86V16.2h1.81v1.22c0 .43.3.8.73.86 1.5.24 2.97.85 4.21 1.74.35.26.82.22 1.12-.09l.87-.87 1.28 1.28-.87.87a.87.87 0 0 0-.09 1.13c.89 1.24 1.5 2.7 1.75 4.21.06.42.43.73.85.73H44z"
            opacity="1"
            data-original="#FF6F61" />
	</g>
</svg>
