<svg
    xmlns="http://www.w3.org/2000/svg"
    version="1.1"
    xmlns:xlink="http://www.w3.org/1999/xlink"
    width="512"
    height="512"
    x="0"
    y="0"
    viewBox="0 0 480.003 480.003"
    style="enable-background:new 0 0 512 512"
    xml:space="preserve"
    class=""><g><path
            d="M8.002 8h464v64h-464V8z"
            style=""
            fill="#FD7D71"
            data-original="#FD7D71" /><path
            d="M240.001 8h232v64h-232V8z"
            style=""
            fill="#FC4B3A"
            data-original="#FC4B3A" /><path
            d="M8.002 72v400l72-16 80 16 80-16 80 16 80-16 72 16V72h-464z"
            style=""
            fill="#FAFAFA"
            data-original="#FAFAFA"
            class="" /><path
            d="m240.001 456 80 16 80-16 72 16V72h-232v384z"
            style=""
            fill="#E5E5E5"
            data-original="#E5E5E5"
            class="" /><path
            d="M136.001 112h208v128h-208V112zM48.001 304h96v64h-96v-64zM192.001 304h96v64h-96v-64zM336.001 304h96v64h-96v-64z"
            style=""
            fill="#FFE667"
            data-original="#FFE667" /><path
            d="M472.001 0h-464c-4.416 0-8 3.584-8 8v464a8.001 8.001 0 0 0 3 6.24 7.96 7.96 0 0 0 6.736 1.568l70.352-15.632 78.344 15.664a7.998 7.998 0 0 0 3.144 0l78.432-15.68 78.432 15.68a7.998 7.998 0 0 0 3.144 0l78.344-15.664 70.352 15.632a7.942 7.942 0 0 0 6.72-1.568 8.001 8.001 0 0 0 3-6.24V8c0-4.416-3.584-8-8-8zm-8 16v48h-448V16h448zm-62.264 432.192a7.798 7.798 0 0 0-3.304-.032l-78.432 15.68-78.432-15.68c-.52-.104-1.04-.16-1.568-.16s-1.048.048-1.568.16l-78.432 15.68-78.431-15.68a7.798 7.798 0 0 0-3.304.032l-62.264 13.832V80h448v382.024l-62.265-13.832z"
            style=""
            fill="#0d0d0d"
            data-original="#0d0d0d"
            class="" /><path
            d="M32.001 32h16v16h-16V32zM64.002 32h16v16h-16V32zM96.002 32h16v16h-16V32zM152.001 32h184v16h-184V32zM432.001 32h16v16h-16V32zM352.001 240V112c0-4.416-3.584-8-8-8h-208c-4.416 0-8 3.584-8 8v128c0 4.416 3.584 8 8 8h208c4.416 0 8-3.584 8-8zm-127.264-64-80.736 49.688V126.32L224.737 176zm-60.472-56h151.48l-75.736 46.608L164.265 120zm75.736 65.392L315.737 232h-151.48l75.744-46.608zM255.266 176l80.736-49.688v99.368L255.266 176zM405.658 205.656l24-24a7.991 7.991 0 0 0 0-11.312l-24-24-11.312 11.312L412.689 176l-18.344 18.344 11.313 11.312zM74.346 205.656l11.312-11.312L67.314 176l18.344-18.344-11.312-11.312-24 24a7.991 7.991 0 0 0 0 11.312l24 24zM168.001 264h16v16h-16v-16zM200.001 264h16v16h-16v-16zM232.001 264h16v16h-16v-16zM264.001 264h16v16h-16v-16zM296.001 264h16v16h-16v-16zM144.001 296h-96c-4.416 0-8 3.584-8 8v64c0 4.416 3.584 8 8 8h96c4.416 0 8-3.584 8-8v-64c0-4.416-3.584-8-8-8zm-62.423 40-25.576 17.056v-34.104L81.578 336zm-7.152-24h43.16L96.01 326.384 74.426 312zm21.576 33.616L117.578 360h-43.16l21.584-14.384zM110.425 336l25.576-17.056v34.104L110.425 336zM288.001 296h-96c-4.416 0-8 3.584-8 8v64c0 4.416 3.584 8 8 8h96c4.416 0 8-3.584 8-8v-64c0-4.416-3.584-8-8-8zm-62.424 40-25.576 17.056v-34.104L225.577 336zm-7.151-24h43.16l-21.576 14.384L218.426 312zm21.575 33.616L261.577 360h-43.16l21.584-14.384zM254.426 336l25.576-17.056v34.104L254.426 336zM432.001 296h-96c-4.416 0-8 3.584-8 8v64c0 4.416 3.584 8 8 8h96c4.416 0 8-3.584 8-8v-64c0-4.416-3.584-8-8-8zm-62.424 40-25.576 17.056v-34.104L369.577 336zm-7.152-24h43.16l-21.584 14.384L362.425 312zm21.576 33.616L405.577 360h-43.16l21.584-14.384zM398.425 336l25.576-17.056v34.104L398.425 336zM56.001 392h80v16h-80v-16zM200.001 392h80v16h-80v-16zM344.001 392h80v16h-80v-16z"
            style=""
            fill="#0d0d0d"
            data-original="#0d0d0d"
            class="" /></g></svg>
